<?xml version="1.0" encoding="UTF-8" standalone="no"?>
<!DOCTYPE svg PUBLIC "-//W3C//DTD SVG 1.1//EN" "http://www.w3.org/Graphics/SVG/1.1/DTD/svg11.dtd">
<svg width="100%" height="100%" viewBox="0 0 51 24" version="1.1" xmlns="http://www.w3.org/2000/svg" xmlns:xlink="http://www.w3.org/1999/xlink" xml:space="preserve" xmlns:serif="http://www.serif.com/" style="fill-rule:evenodd;clip-rule:evenodd;stroke-linejoin:round;stroke-miterlimit:2;stroke:currentColor;fill:currentColor;">
    <g transform="matrix(1,0,0,1,-4414,-4724)">
        <g transform="matrix(1,0,0,1,3028.45,4531.18)">
            <g transform="matrix(0.0379226,0,0,0.0425744,957.573,165.882)">
                <g transform="matrix(1,0,-0.0699268,1,7736.16,-3278.77)">
                    <path d="M3971.91,4174.98L3971.91,3993.01L4105.44,3915.91L4192.62,3965.79L4129.87,4002.59L4105.44,3988.08L4034.41,4029.09L4034.41,4160.39L4176.48,4127.23L4176.48,3993.01L4310.02,3915.91L4427.93,3983.99L4365.51,4020.82L4310.02,3988.08L4238.98,4029.09L4238.98,4112.65L4381.95,4079.28L4370.73,4146.08L4238.98,4176.83L4238.98,4448.06L4176.48,4461.37L4176.48,4191.41L4034.41,4224.57L4034.41,4448.06L3971.91,4461.37L3971.91,4239.16L3872.93,4262.26L3878.34,4196.82L3971.91,4174.98Z"/>
                </g>
                <g transform="matrix(1,0,-0.0699268,1,7023.49,-1625.23)">
                    <path d="M5403.92,2611.12L5403.92,2440.19L5466.42,2427.2L5466.42,2647.2L5332.88,2724.3L5230.6,2665.25L5128.31,2724.3L4994.77,2647.2L4994.77,2440.19L5057.27,2426.94L5057.27,2611.12L5128.31,2652.13L5230.6,2593.08L5332.88,2652.13L5403.92,2611.12Z"/>
                </g>
                <g transform="matrix(1,0,-0.0699268,1,7684,-3278.77)">
                    <path d="M5148.2,4110.47L5148.2,3928.38L5210.7,3914.8L5210.7,4353.57L5148.2,4367.37L5148.2,4336.83L5077.17,4377.85L4943.63,4300.75L4943.63,4146.55L5077.17,4069.46L5148.2,4110.47ZM5148.2,4182.64L5077.17,4141.62L5006.13,4182.64L5006.13,4264.66L5077.17,4305.68L5148.2,4264.66L5148.2,4182.64Z"/>
                </g>
            </g>
        </g>
    </g>
</svg>
